#!OML:ASF E:\emotionWalksFemale\Project 1\Capture day 1\Session 1\Female1.ASF
:FULLY-SPECIFIED
:DEGREES
828
root 8.48445 14.8995 -31.4444 169.778 18.6963 -179.652
lowerback 1.98705 5.14348 8.67684
upperback -5.33678 7.94307 3.00535
thorax -6.02311 3.75495 -2.19145
lowerneck -10.3028 -0.764149 -0.993176
upperneck 18.5885 0.177439 -2.31607
head 7.40899 0.0637781 -0.539626
rclavicle -4.77083e-015 -2.94201e-014
rhumerus -8.84697 41.4558 -94.7812
rradius 56.8062
rwrist 18.4621
rhand -14.6203 -48.7153
rfingers 7.12502
rthumb 11.5309 -438.378
lclavicle -4.77083e-015 -2.94201e-014
lhumerus -76.8341 -0.834072 58.7468
lradius 24.736
lwrist -37.1563
lhand 22.8519 -30.9539
lfingers 7.12502
lthumb 47.182 -8.36831
rfemur 29.0185 9.13698 25.3771
rtibia 20.937
rfoot -13.7304 -2.27102
rtoes -15.3527
lfemur -15.7211 -21.0345 -17.111
ltibia 25.8325
lfoot -6.15646 9.52619
ltoes -44.0622
829
root 8.48741 14.9262 -31.6015 169.452 18.3889 -180.208
lowerback 1.69561 5.13763 8.26637
upperback -5.45169 7.86977 2.78051
thorax -5.99936 3.72965 -2.17589
lowerneck -9.66754 -0.75405 -1.03033
upperneck 18.6624 0.181325 -2.07318
head 7.31925 0.106481 -0.45058
rclavicle -1.33186e-013 -2.94201e-014
rhumerus -10.1865 40.1509 -95.9546
rradius 56.1933
rwrist 18.5895
rhand -14.7267 -49.3215
rfingers 7.12502
rthumb 11.4283 -438.99
lclavicle -1.33186e-013 -2.94201e-014
lhumerus -75.3894 -0.09387 56.6383
lradius 24.9612
lwrist -40.6603
lhand 18.0962 -30.8488
lfingers 7.12502
lthumb 42.7576 -6.51775
rfemur 27.7406 8.49871 24.1115
rtibia 24.3324
rfoot -11.9115 -0.712993
rtoes -12.0897
lfemur -14.8087 -19.7704 -18.3858
ltibia 25.537
lfoot -6.2001 8.12692
ltoes -43.4664
830
root 8.47856 14.9511 -31.7558 168.911 17.9133 -180.804
lowerback 1.80709 5.1312 7.99833
upperback -5.44437 7.81695 2.50277
thorax -6.04825 3.69598 -2.32707
lowerneck -10.0799 -0.91474 -1.55176
upperneck 19.4663 0.00242758 -1.4521
head 7.65736 0.0523341 -0.176709
rclavicle -4.65156e-014 3.26007e-014
rhumerus -11.201 38.3977 -96.5984
rradius 55.2539
rwrist 18.9056
rhand -13.7491 -50.0179
rfingers 7.12502
rthumb 12.371 -439.632
lclavicle -4.65156e-014 3.26007e-014
lhumerus -73.6033 0.977695 54.5119
lradius 25.1412
lwrist -45.2182
lhand 12.7518 -30.9881
lfingers 7.12502
lthumb 37.7314 -5.11626
rfemur 26.6419 7.63344 22.663
rtibia 27.7425
rfoot -10.3712 0.336036
rtoes -12.4815
lfemur -13.6803 -19.2282 -19.75
ltibia 25.3238
lfoot -6.63264 6.99207
ltoes -40.4481
831
root 8.45687 14.9939 -31.8795 169.54 17.9558 -180.067
lowerback 1.48254 5.15264 9.15778
upperback -5.77149 7.94568 2.4914
thorax -6.07303 3.71492 -2.94695
lowerneck -9.54196 -0.956789 -1.69966
upperneck 19.519 -0.0430218 -1.25165
head 7.5784 0.0572254 -0.0875484
rclavicle -3.61788e-014 -3.81667e-014
rhumerus -12.3847 36.5811 -97.284
rradius 54.0866
rwrist 19.3078
rhand -12.9233 -50.5615
rfingers 7.12502
rthumb 13.1671 -440.126
lclavicle -3.61788e-014 -3.81667e-014
lhumerus -71.9858 2.12054 52.7098
lradius 25.4384
lwrist -49.1097
lhand 7.42607 -30.7559
lfingers 7.12502
lthumb 32.6812 -3.68896
rfemur 24.3228 7.19713 22.6916
rtibia 31.314
rfoot -8.16362 1.10188
rtoes -13.5117
lfemur -13.5001 -18.9776 -19.1984
ltibia 24.9516
lfoot -7.14451 6.79927
ltoes -37.7346
832
root 8.44831 15.017 -32.0154 169.081 17.3271 -180.647
lowerback 1.48571 5.1126 8.81444
upperback -5.70533 7.81349 2.14272
thorax -6.00234 3.64794 -3.11348
lowerneck -9.52983 -1.14182 -1.89741
upperneck 19.7004 -0.293512 -1.01008
head 7.63764 -0.048373 0.00222677
rclavicle -5.24792e-014 -5.56597e-015
rhumerus -13.1177 34.543 -97.4594
rradius 52.6997
rwrist 19.9422
rhand -12.2246 -51.0433
rfingers 7.12502
rthumb 13.8406 -440.563
lclavicle -5.24792e-014 -5.56597e-015
lhumerus -69.9612 3.5025 51.3397
lradius 25.8626
lwrist -51.4392
lhand 3.15606 -29.7529
lfingers 7.12502
lthumb 28.6097 -1.92269
rfemur 22.9378 6.38113 21.3149
rtibia 35.0186
rfoot -6.48604 1.90276
rtoes -15.909
lfemur -12.281 -18.9272 -20.4445
ltibia 24.2149
lfoot -7.57291 6.42232
ltoes -35.7744
833
root 8.44429 15.0287 -32.1485 168.053 16.2104 -181.893
lowerback 1.83513 5.09523 7.70392
upperback -5.54294 7.66771 1.64115
thorax -6.09108 3.59056 -3.05675
lowerneck -9.30532 -1.47858 -2.51328
upperneck 19.859 -0.721595 -0.534033
head 7.6577 -0.241012 0.223671
rclavicle -6.16232e-014 -4.92986e-014
rhumerus -13.9063 32.2374 -97.0789
rradius 51.2602
rwrist 20.7954
rhand -11.1133 -51.3697
rfingers 7.12502
rthumb 14.9113 -440.813
lclavicle -6.16232e-014 -4.92986e-014
lhumerus -67.7856 4.67769 50.817
lradius 26.4327
lwrist -51.4888
lhand -0.321758 -29.3942
lfingers 7.12502
lthumb 25.2821 -1.04954
rfemur 22.0008 5.28514 19.162
rtibia 38.8812
rfoot -5.61142 2.63859
rtoes -18.9099
lfemur -10.5488 -18.9184 -22.5896
ltibia 23.2531
lfoot -7.98296 5.42648
ltoes -31.4057
834
root 8.44846 15.0408 -32.2684 167.068 14.9166 -183.163
lowerback 2.00635 4.88688 6.09643
upperback -5.32241 7.22727 1.23355
thorax -6.11177 3.42235 -2.59513
lowerneck -8.64431 -0.648945 -2.75919
upperneck 19.56 -1.20425 -0.24805
head 7.44076 -1.14993 0.227335
rclavicle -1.23246e-014 1.19271e-014
rhumerus -14.7103 30.5062 -96.7262
rradius 49.6717
rwrist 21.3673
rhand -9.70415 -52.0316
rfingers 7.12502
rthumb 16.2685 -441.369
lclavicle -1.23246e-014 1.19271e-014
lhumerus -65.7935 5.9667 50.7606
lradius 26.9612
lwrist -49.182
lhand -2.4975 -28.7483
lfingers 7.12502
lthumb 23.1962 -0.125061
rfemur 20.9748 4.11355 16.9706
rtibia 42.7891
rfoot -5.18624 2.92798
rtoes -21.3694
lfemur -8.82519 -18.7435 -24.7143
ltibia 22.1402
lfoot -8.10145 4.2502
ltoes -28.3033
835
root 8.45373 15.0526 -32.3638 166.747 13.8679 -183.749
lowerback 2.32391 4.76991 5.09632
upperback -5.38228 7.01356 0.962419
thorax -6.44719 3.33983 -2.3588
lowerneck -8.59792 -0.775537 -3.14257
upperneck 19.9537 -1.47865 0.346587
head 7.5719 -1.27674 0.457354
rclavicle -4.87022e-014 6.75868e-015
rhumerus -15.5296 28.7217 -96.18
rradius 47.8011
rwrist 21.5271
rhand -9.46679 -52.6497
rfingers 7.12502
rthumb 16.4971 -441.968
lclavicle -4.87022e-014 6.75868e-015
lhumerus -63.68 6.91566 51.5435
lradius 28.0502
lwrist -43.6157
lhand -1.4024 -27.1124
lfingers 7.12502
lthumb 24.2465 1.37457
rfemur 19.2405 3.09027 15.6678
rtibia 46.566
rfoot -5.09329 2.53142
rtoes -24.6266
lfemur -7.67004 -18.4729 -25.8416
ltibia 20.8659
lfoot -7.33101 3.37558
ltoes -32.6381
836
root 8.43763 15.0864 -32.4264 167.476 13.5526 -182.703
lowerback 2.66679 4.77028 6.01735
upperback -5.54476 7.13159 1.08564
thorax -6.72812 3.3479 -2.78283
lowerneck -8.78393 -1.0139 -3.92057
upperneck 19.728 -1.80427 1.22612
head 7.55197 -1.38668 0.847415
rclavicle -6.1822e-014 -4.96962e-014
rhumerus -15.5974 27.2521 -94.9964
rradius 45.7307
rwrist 21.7372
rhand -9.4294 -53.0937
rfingers 7.12502
rthumb 16.5331 -442.409
lclavicle -6.1822e-014 -4.96962e-014
lhumerus -61.3597 8.49554 52.1592
lradius 29.0446
lwrist -39.16
lhand -1.92812 -27.3477
lfingers 7.12502
lthumb 23.7423 1.20565
rfemur 16.3802 2.36072 16.3513
rtibia 50.1959
rfoot -5.13539 1.50364
rtoes -27.2218
lfemur -7.79797 -18.4313 -24.8061
ltibia 20.3297
lfoot -6.70697 2.8897
ltoes -37.4441
837
root 8.43311 15.0755 -32.584 166.03 12.9741 -184.009
lowerback 2.9573 4.88393 4.81128
upperback -5.09034 7.10971 0.642717
thorax -6.48036 3.37463 -2.58475
lowerneck -8.20974 -1.19874 -4.4134
upperneck 19.5908 -2.13872 1.77562
head 7.4236 -1.54391 1.08285
rclavicle 5.36719e-014 5.56597e-014
rhumerus -16.3443 25.6695 -94.1229
rradius 43.8705
rwrist 22.4376
rhand -8.62786 -53.7277
rfingers 7.12502
rthumb 17.3046 -442.977
lclavicle 5.36719e-014 5.56597e-014
lhumerus -59.5812 9.27623 53.1092
lradius 30.6208
lwrist -33.8868
lhand -0.869955 -27.3562
lfingers 7.12502
lthumb 24.7569 1.06168
rfemur 16.1729 1.74823 13.9999
rtibia 53.5467
rfoot -6.3024 0.936395
rtoes -27.9309
lfemur -5.43847 -18.917 -27.2468
ltibia 19.8574
lfoot -7.04039 3.38093
ltoes -37.6543
838
root 8.43888 15.1146 -32.6041 167.233 11.9207 -181.834
lowerback 3.44068 4.44106 6.27251
upperback -5.59102 6.75329 0.959559
thorax -7.21622 3.11592 -3.10721
lowerneck -7.78165 -1.31642 -4.27507
upperneck 19.2869 -2.34835 1.84087
head 7.25357 -1.62608 1.06712
rclavicle -1.13705e-013 -3.61788e-014
rhumerus -17.0437 24.167 -93.1556
rradius 42.247
rwrist 23.2938
rhand -8.11089 -54.2424
rfingers 7.12502
rthumb 17.8021 -443.448
lclavicle -1.13705e-013 -3.61788e-014
lhumerus -57.8223 9.838 54.5245
lradius 32.767
lwrist -27.657
lhand 1.15236 -26.5457
lfingers 7.12502
lthumb 26.6937 1.59179
rfemur 13.0324 0.308621 16.3209
rtibia 56.8141
rfoot -6.38996 -1.35152
rtoes -28.9019
lfemur -6.45548 -18.7107 -24.7683
ltibia 19.6379
lfoot -6.78778 1.54006
ltoes -36.5922
